<?xml version="1.0" encoding="utf-8"?>
<!-- Generator: Adobe Illustrator 16.0.0, SVG Export Plug-In . SVG Version: 6.00 Build 0)  -->
<!DOCTYPE svg PUBLIC "-//W3C//DTD SVG 1.1//EN" "http://www.w3.org/Graphics/SVG/1.1/DTD/svg11.dtd">
<svg version="1.1" xmlns="http://www.w3.org/2000/svg" xmlns:xlink="http://www.w3.org/1999/xlink" x="0px" y="0px" width="350px"
	 height="150px" viewBox="0 0 350 150" enable-background="new 0 0 350 150" xml:space="preserve">
<g id="图层_1">
	<defs>
		<path id="SVGID_1_" d="M54.432,27.08v24.543c-1.851-0.631-3.281-0.946-4.29-0.946c-1.935,0-3.596,0.715-4.984,2.145
			c-1.388,1.43-2.082,3.155-2.082,5.173c0,1.726,0.757,3.912,2.271,6.562l1.956,3.407c3.533,6.142,5.3,12.072,5.3,17.792
			c0,8.371-2.976,15.458-8.928,21.263c-5.952,5.805-13.218,8.707-21.798,8.707c-4.123,0-8.202-0.946-12.24-2.84V87.965
			c2.438,1.557,4.605,2.334,6.499,2.334c2.229,0,4.09-0.641,5.583-1.924c1.493-1.283,2.24-2.892,2.24-4.827
			c0-1.262-1.199-4.017-3.596-8.265c-3.828-6.729-5.742-13.459-5.742-20.189c0-8.118,2.892-15.111,8.675-20.979
			c5.783-5.868,12.692-8.801,20.726-8.801C47.555,25.313,51.025,25.903,54.432,27.08z M65.662,51.56h23.597v33.88
			c0,2.65,0.273,4.49,0.82,5.521c0.546,1.031,1.535,1.546,2.965,1.546c2.65,0,3.975-2.354,3.975-7.066V51.56h23.597v33.88
			c0,2.65,0.284,4.49,0.852,5.521c0.568,1.031,1.566,1.546,2.997,1.546c2.607,0,3.912-2.354,3.912-7.066V51.56h23.597v38.739
			c0,7.066-2.377,13.071-7.129,18.013c-4.754,4.943-10.516,7.414-17.288,7.414c-6.982,0-13.25-2.944-18.802-8.833
			c-6.142,5.889-12.325,8.833-18.549,8.833c-7.866,0-14.175-2.86-18.928-8.581c-3.744-4.5-5.615-10.999-5.615-19.495V51.56z
			 M227.621,85.945h-35.773c-0.547-1.808-0.82-3.47-0.82-4.984c0-2.103,0.379-4.164,1.136-6.183h11.988
			c-0.842-4.668-3.471-7.003-7.887-7.003c-2.944,0-5.343,1.252-7.192,3.754c-1.852,2.503-2.776,5.709-2.776,9.622
			c0,4.08,0.894,7.382,2.682,9.905c1.787,2.524,4.132,3.786,7.034,3.786c2.355,0,4.627-1.178,6.814-3.533l13.438,16.151
			c-6.268,4.921-13.229,7.382-20.884,7.382c-9.337,0-17.183-3.133-23.533-9.4c-6.352-6.268-9.527-14.027-9.527-23.281
			c0-9.212,3.207-16.993,9.622-23.345c6.414-6.351,14.29-9.527,23.628-9.527c9.127,0,16.793,3.103,22.997,9.306
			c6.204,6.205,9.307,13.849,9.307,22.935C227.874,82.455,227.789,83.927,227.621,85.945z M299.231,85.945h-35.773
			c-0.547-1.808-0.82-3.47-0.82-4.984c0-2.103,0.379-4.164,1.136-6.183h11.987c-0.842-4.668-3.47-7.003-7.887-7.003
			c-2.944,0-5.342,1.252-7.192,3.754c-1.852,2.503-2.776,5.709-2.776,9.622c0,4.08,0.894,7.382,2.682,9.905
			c1.787,2.524,4.133,3.786,7.035,3.786c2.355,0,4.626-1.178,6.813-3.533l13.439,16.151c-6.269,4.921-13.229,7.382-20.884,7.382
			c-9.338,0-17.183-3.133-23.534-9.4s-9.526-14.027-9.526-23.281c0-9.212,3.207-16.993,9.621-23.345
			c6.414-6.351,14.291-9.527,23.629-9.527c9.126,0,16.792,3.103,22.997,9.306c6.204,6.205,9.306,13.849,9.306,22.935
			C299.483,82.455,299.399,83.927,299.231,85.945z M330.021,27.458V51.56h10.6v24.921h-10.6c0,5.006,0.789,8.454,2.366,10.348
			c1.577,1.893,4.469,2.839,8.676,2.839v24.795c-1.221,0.042-2.125,0.063-2.714,0.063c-5.342,0-10.378-1.24-15.11-3.723
			c-4.731-2.481-8.528-5.846-11.389-10.095c-3.617-5.426-5.426-12.618-5.426-21.577V27.458H330.021z"/>
	</defs>
	<clipPath id="SVGID_2_">
		<use xlink:href="#SVGID_1_"  overflow="visible"/>
	</clipPath>
	<rect x="5" y="16" clip-path="url(#SVGID_2_)" fill="#2F54EB" width="296" height="107"/>
	<rect x="281" y="52" clip-path="url(#SVGID_2_)" fill="#2F54EB" width="61" height="63"/>
</g>
<g id="图层_2">
	<g>
		<path fill="#2F54EB" d="M322,10.672h0.719l5.031,14.375h16.531v0.719l-13.297,9.344l6.828,15.813l-0.719,0.359l-14.734-11.141
			l-14.016,11.141l-0.719-0.359l6.469-15.813l-13.656-9.344v-0.719h16.531L322,10.672z"/>
	</g>
</g>
</svg>
